<svg xmlns="http://www.w3.org/2000/svg" id="Layer_1" viewBox="0 0 929.77 187.7"><defs><style>.cls-1{fill:#f0f0f1;}</style></defs><path class="cls-1" d="M30.57,187.7a294.54,294.54,0,0,1,43-34.25,266.45,266.45,0,0,1,23.89-13.72,251.48,251.48,0,0,1,25.26-11,244.48,244.48,0,0,1,53.54-12.87,263.41,263.41,0,0,1,27.51-2c9.19-.2,18.39,0,27.56.49s18.35,1.1,27.49,1.95l13.71,1.24,6.86.64,6.84.76,13.69,1.53c4.56.52,9.11,1.19,13.66,1.78,9.11,1.14,18.18,2.61,27.26,4,18.12,3,36.16,6.48,54.11,10.32s35.85,7.9,53.87,11.23a536.58,536.58,0,0,0,54.42,7.44c9.12.88,18.28,1.23,27.42,1.72l13.74.38,13.75.09a652.37,652.37,0,0,0,109.39-9.74,611.25,611.25,0,0,0,105.89-29.14,622.16,622.16,0,0,0,99.16-47.43,622.78,622.78,0,0,1-98.81,48.34,610.14,610.14,0,0,1-106,29.74,638,638,0,0,1-109.66,10.05l-13.78-.06-13.77-.36c-9.18-.49-18.37-.81-27.52-1.69a537.24,537.24,0,0,1-54.63-7.37c-18.07-3.37-36-7.5-53.9-11.33s-35.92-7.37-54-10.39c-36.18-5.89-72.71-9.79-109.29-12.18-9.14-.49-18.3-.77-27.46-.63a263.87,263.87,0,0,0-27.38,1.83,244.49,244.49,0,0,0-53.36,12.53,247.11,247.11,0,0,0-25.26,10.76,263.16,263.16,0,0,0-24,13.47A294.63,294.63,0,0,0,30.57,187.7Z"/><path class="cls-1" d="M0,131.5a236.27,236.27,0,0,1,31.64-23.84c5.64-3.47,11.36-6.81,17.29-9.76,2.92-1.56,6-2.9,8.94-4.33,1.49-.72,3-1.32,4.56-2s3-1.33,4.58-1.93a218.56,218.56,0,0,1,38.1-11.22,211.78,211.78,0,0,1,39.56-3.81c6.62,0,13.24.21,19.85.54s13.19.73,19.8,1.23c13.19,1,26.34,2.64,39.37,4.93s26,5.15,38.73,8.56,25.38,7.42,37.77,12c-12.54-4.17-25.2-7.93-38-11.07s-25.73-5.88-38.74-8a514.35,514.35,0,0,0-78.76-6.22,210.61,210.61,0,0,0-39.23,3.6l-4.83,1c-1.61.34-3.2.76-4.8,1.13L91,83.49l-4.74,1.35c-3.18.84-6.29,1.92-9.42,2.93l-2.34.77-2.32.85-4.63,1.7A240.05,240.05,0,0,0,0,131.5Z"/><path class="cls-1" d="M20.23,67.83a184.21,184.21,0,0,1,25.58-16,175.15,175.15,0,0,1,27.94-11.4,182.72,182.72,0,0,1,29.54-6.3,180.19,180.19,0,0,1,30.19-1.23,208.92,208.92,0,0,1,30,3.47c9.91,1.86,19.69,4.4,29.35,7.2q29.08,8.17,57.68,17.93c38.15,12.89,75.53,27.92,112.88,42.9,18.68,7.47,37.37,14.91,56.26,21.8,9.43,3.48,18.94,6.73,28.47,9.9s19.16,6.06,28.86,8.66a462.58,462.58,0,0,0,58.92,12.35,407.32,407.32,0,0,0,60,3.94,438.55,438.55,0,0,0,60-4.57,516.11,516.11,0,0,0,59-12.29c19.39-5.24,38.6-11.29,57.48-18.15a567,567,0,0,0,55.41-23.73A571.53,571.53,0,0,0,929.77,38.15a572.15,572.15,0,0,1-101.49,65.06,563.56,563.56,0,0,1-55.4,24q-28.36,10.45-57.52,18.46a498.54,498.54,0,0,1-59.12,12.51A440.33,440.33,0,0,1,596,162.9,409.84,409.84,0,0,1,535.66,159a463.79,463.79,0,0,1-59.17-12.32c-9.74-2.62-19.35-5.66-28.94-8.74s-19.09-6.46-28.53-10c-18.91-6.93-37.6-14.41-56.28-21.9s-37.32-15.05-56.08-22.31S269.05,69.54,250,63s-38.18-12.64-57.52-18.17c-9.65-2.84-19.36-5.41-29.22-7.3a209.67,209.67,0,0,0-29.86-3.61,179.8,179.8,0,0,0-30.07,1,181.72,181.72,0,0,0-29.47,6,173.94,173.94,0,0,0-28,11.15A184.16,184.16,0,0,0,20.23,67.83Z"/><path class="cls-1" d="M153.31,12.68c3.49-1.33,7-2.56,10.58-3.72s7.14-2.2,10.76-3.11a180.93,180.93,0,0,1,22-4.31,171.32,171.32,0,0,1,44.79-.14,151.24,151.24,0,0,1,22,4.65,214.56,214.56,0,0,1,21.19,7.45c6.94,2.81,13.77,5.86,20.6,8.87l20.54,9c27.42,11.82,55.11,23.07,83.42,32.55C423.33,68.64,437.61,73,452,76.77s29,6.81,43.76,9.13a341.67,341.67,0,0,0,44.49,3.94c14.9.34,29.82-.29,44.72-1.2,7.46-.44,14.9-.93,22.34-1.54,3.71-.34,7.43-.64,11.14-1l11.12-1.23c14.81-1.8,29.55-4.17,44.21-7l11-2.18,10.93-2.44c3.65-.78,7.26-1.7,10.88-2.61s7.25-1.77,10.86-2.74l10.78-3c1.8-.51,3.61-1,5.39-1.52L739,61.76l10.7-3.28,10.62-3.55A708.33,708.33,0,0,0,843.25,21.1c-53.52,26.56-110.4,46.7-169.13,58.29-14.68,2.9-29.45,5.35-44.3,7.16l-11.15,1.26c-3.72.4-7.45.71-11.17,1.06-7.46.62-14.92,1.13-22.38,1.59-14.92.93-29.89,1.6-44.87,1.29a340.35,340.35,0,0,1-44.75-3.88c-14.8-2.36-29.46-5.49-43.94-9.26s-28.79-8.21-43-13C380.25,56,352.5,44.8,325.14,32.74l-20.49-9.09c-6.81-3.06-13.61-6.14-20.51-9a212.33,212.33,0,0,0-21-7.55,152.91,152.91,0,0,0-21.8-4.76A171.1,171.1,0,0,0,196.72,2a180.9,180.9,0,0,0-22,4.06c-3.63.87-7.21,1.92-10.79,3S156.82,11.39,153.31,12.68Z"/><path class="cls-1" d="M526.33,107.66a525.54,525.54,0,0,0,85.83-1.45c14.24-1.46,28.43-3.36,42.5-6s28-5.83,41.82-9.59A510.7,510.7,0,0,0,777,61.19a527.42,527.42,0,0,0,74.64-42.38C840.05,27.2,828,35,815.69,42.38s-25.06,14-38,20.2S751.46,74.3,738,79.31s-27.14,9.43-41,13.23a493.21,493.21,0,0,1-84.7,15.2q-21.46,1.88-43,1.92C555,109.61,540.61,109,526.33,107.66Z"/></svg>